<?xml version="1.0" encoding="UTF-8"?>
<svg width="1360" height="1720" viewBox="0 0 680 860" xmlns="http://www.w3.org/2000/svg" xmlns:xlink="http://www.w3.org/1999/xlink">
  <title>AWS CDK Blue/Green Deployment Pipeline Architecture</title>
  <desc>Architecture diagram using AWS service icons showing the full CI/CD pipeline, VPC infrastructure, Blue/Green deployment, and CDK stacks</desc>

  <style>
    * { font-family: -apple-system, BlinkMacSystemFont, "Segoe UI", Helvetica, Arial, sans-serif; }
    .svc-label { font-size: 11px; fill: #1a1a18; text-anchor: middle; font-weight: 500; }
    .svc-sub   { font-size: 10px; fill: #6b6a63; text-anchor: middle; }
    .zone-label{ font-size: 10px; font-weight: 600; letter-spacing: 0.07em; fill: #6b6a63; text-anchor: start; }
    .flow-label{ font-size: 10px; fill: #9c9a92; text-anchor: middle; }
    .section-title { font-size: 11px; font-weight: 600; letter-spacing: 0.08em; fill: #9c9a92; text-anchor: middle; }
  </style>

  <rect width="680" height="860" fill="#ffffff"/>

  <defs>
    <marker id="arr" viewBox="0 0 10 10" refX="8" refY="5" markerWidth="5" markerHeight="5" orient="auto-start-reverse">
      <path d="M2 1L8 5L2 9" fill="none" stroke="#888780" stroke-width="1.5" stroke-linecap="round" stroke-linejoin="round"/>
    </marker>
    <marker id="arr-blue" viewBox="0 0 10 10" refX="8" refY="5" markerWidth="5" markerHeight="5" orient="auto-start-reverse">
      <path d="M2 1L8 5L2 9" fill="none" stroke="#185FA5" stroke-width="1.5" stroke-linecap="round" stroke-linejoin="round"/>
    </marker>
    <marker id="arr-green" viewBox="0 0 10 10" refX="8" refY="5" markerWidth="5" markerHeight="5" orient="auto-start-reverse">
      <path d="M2 1L8 5L2 9" fill="none" stroke="#1D9E75" stroke-width="1.5" stroke-linecap="round" stroke-linejoin="round"/>
    </marker>
    <marker id="arr-orange" viewBox="0 0 10 10" refX="8" refY="5" markerWidth="5" markerHeight="5" orient="auto-start-reverse">
      <path d="M2 1L8 5L2 9" fill="none" stroke="#BA7517" stroke-width="1.5" stroke-linecap="round" stroke-linejoin="round"/>
    </marker>
  </defs>

  <text class="section-title" x="340" y="22" text-anchor="middle">CI / CD PIPELINE</text>

  <rect x="18" y="34" width="72" height="72" rx="10" fill="#f5f4f0" stroke="#d3d1c7" stroke-width="0.5"/>
  <path d="M54 52 C43.5 52 35 60.5 35 71 C35 79.4 40.2 86.5 47.6 88.9 C48.5 89.1 48.8 88.5 48.8 88 C48.8 87.6 48.8 86.3 48.8 84.7 C43.9 85.8 42.9 82.5 42.9 82.5 C42.1 80.4 40.9 79.8 40.9 79.8 C39.2 78.7 41 78.7 41 78.7 C42.8 78.8 43.8 80.6 43.8 80.6 C45.5 83.4 48.2 82.6 48.9 82.1 C49.1 80.9 49.6 80.1 50.1 79.6 C46.3 79.2 42.3 77.7 42.3 71.2 C42.3 69.2 43 67.5 44.2 66.2 C44 65.7 43.3 63.8 44.4 61.2 C44.4 61.2 46 60.7 48.8 62.6 C50.3 62.2 51.9 62 53.5 62 C55.1 62 56.7 62.2 58.2 62.6 C61 60.7 62.6 61.2 62.6 61.2 C63.7 63.8 63 65.7 62.8 66.2 C64 67.5 64.7 69.2 64.7 71.2 C64.7 77.7 60.7 79.2 56.9 79.6 C57.5 80.2 58.1 81.4 58.1 83.2 C58.1 85.8 58.1 87.9 58.1 88 C58.1 88.5 58.4 89.1 59.3 88.9 C66.7 86.5 72 79.4 72 71 C72 60.5 63.5 52 54 52 Z" fill="#444441"/>
  <text class="svc-label" x="54" y="116">GitHub</text>
  <text class="svc-sub" x="54" y="128">source</text>

  <line x1="90" y1="70" x2="108" y2="70" stroke="#888780" stroke-width="1" marker-end="url(#arr)"/>

  <rect x="110" y="34" width="72" height="72" rx="10" fill="#E6F1FB" stroke="#85B7EB" stroke-width="0.5"/>
  <rect x="128" y="50" width="36" height="40" rx="3" fill="none" stroke="#185FA5" stroke-width="1.5"/>
  <rect x="134" y="56" width="8" height="8" rx="1" fill="#185FA5"/>
  <rect x="134" y="70" width="8" height="8" rx="1" fill="#185FA5"/>
  <rect x="134" y="84" width="8" height="8" rx="1" fill="#185FA5" opacity="0.4"/>
  <line x1="142" y1="60" x2="156" y2="60" stroke="#185FA5" stroke-width="1.5" marker-end="url(#arr-blue)"/>
  <line x1="142" y1="74" x2="156" y2="74" stroke="#185FA5" stroke-width="1.5" marker-end="url(#arr-blue)"/>
  <line x1="142" y1="88" x2="156" y2="88" stroke="#185FA5" stroke-width="1.5" opacity="0.4" marker-end="url(#arr-blue)"/>
  <text class="svc-label" x="146" y="116" style="fill:#0C447C">CodePipeline</text>
  <text class="svc-sub" x="146" y="128">orchestrate</text>

  <line x1="182" y1="70" x2="200" y2="70" stroke="#888780" stroke-width="1" marker-end="url(#arr)"/>

  <rect x="202" y="34" width="72" height="72" rx="10" fill="#E6F1FB" stroke="#85B7EB" stroke-width="0.5"/>
  <rect x="222" y="48" width="32" height="44" rx="3" fill="none" stroke="#185FA5" stroke-width="1.5"/>
  <line x1="228" y1="58" x2="248" y2="58" stroke="#185FA5" stroke-width="1.2"/>
  <line x1="228" y1="64" x2="248" y2="64" stroke="#185FA5" stroke-width="1.2"/>
  <line x1="228" y1="70" x2="240" y2="70" stroke="#185FA5" stroke-width="1.2"/>
  <polygon points="238,76 250,70 238,64" fill="#185FA5" opacity="0.7"/>
  <text class="svc-label" x="238" y="116" style="fill:#0C447C">CodeBuild</text>
  <text class="svc-sub" x="238" y="128">build + push</text>

  <line x1="274" y1="70" x2="292" y2="70" stroke="#888780" stroke-width="1" marker-end="url(#arr)"/>

  <rect x="294" y="34" width="72" height="72" rx="10" fill="#E1F5EE" stroke="#5DCAA5" stroke-width="0.5"/>
  <rect x="314" y="52" width="32" height="36" rx="4" fill="none" stroke="#0F6E56" stroke-width="1.5"/>
  <rect x="320" y="58" width="20" height="6" rx="2" fill="#0F6E56"/>
  <rect x="320" y="68" width="20" height="6" rx="2" fill="#0F6E56" opacity="0.6"/>
  <rect x="320" y="78" width="12" height="6" rx="2" fill="#0F6E56" opacity="0.3"/>
  <text class="svc-label" x="330" y="116" style="fill:#085041">ECR</text>
  <text class="svc-sub" x="330" y="128">image registry</text>

  <line x1="366" y1="70" x2="384" y2="70" stroke="#888780" stroke-width="1" marker-end="url(#arr)"/>

  <rect x="386" y="34" width="72" height="72" rx="10" fill="#E6F1FB" stroke="#85B7EB" stroke-width="0.5"/>
  <circle cx="422" cy="66" r="18" fill="none" stroke="#185FA5" stroke-width="1.5"/>
  <circle cx="413" cy="66" r="5" fill="#185FA5"/>
  <circle cx="431" cy="66" r="5" fill="#1D9E75"/>
  <rect x="417" y="63" width="10" height="6" fill="white"/>
  <text class="svc-label" x="422" y="116" style="fill:#0C447C">CodeDeploy</text>
  <text class="svc-sub" x="422" y="128">blue/green</text>

  <line x1="458" y1="70" x2="476" y2="70" stroke="#888780" stroke-width="1" marker-end="url(#arr)"/>

  <rect x="478" y="34" width="72" height="72" rx="10" fill="#FAEEDA" stroke="#EF9F27" stroke-width="0.5"/>
  <rect x="492" y="50" width="44" height="8" rx="2" fill="#BA7517"/>
  <line x1="514" y1="58" x2="502" y2="74" stroke="#BA7517" stroke-width="1.5"/>
  <line x1="514" y1="58" x2="526" y2="74" stroke="#BA7517" stroke-width="1.5"/>
  <rect x="494" y="74" width="14" height="14" rx="2" fill="#185FA5" opacity="0.8"/>
  <rect x="514" y="74" width="14" height="14" rx="2" fill="#1D9E75" opacity="0.8"/>
  <text class="svc-label" x="514" y="116" style="fill:#633806">ALB</text>
  <text class="svc-sub" x="514" y="128">load balancer</text>

  <line x1="550" y1="70" x2="568" y2="70" stroke="#888780" stroke-width="1" marker-end="url(#arr)"/>

  <rect x="570" y="34" width="72" height="72" rx="10" fill="#E1F5EE" stroke="#5DCAA5" stroke-width="0.5"/>
  <rect x="585" y="50" width="42" height="38" rx="4" fill="none" stroke="#0F6E56" stroke-width="1.5"/>
  <rect x="591" y="56" width="12" height="10" rx="2" fill="#185FA5"/>
  <rect x="609" y="56" width="12" height="10" rx="2" fill="#185FA5"/>
  <rect x="591" y="72" width="12" height="10" rx="2" fill="#185FA5" opacity="0.4"/>
  <rect x="609" y="72" width="12" height="10" rx="2" fill="#1D9E75"/>
  <text class="svc-label" x="606" y="116" style="fill:#085041">ECS Fargate</text>
  <text class="svc-sub" x="606" y="128">containers</text>

  <line x1="340" y1="148" x2="340" y2="168" stroke="#d3d1c7" stroke-width="0.5"/>

  <text class="section-title" x="340" y="186" text-anchor="middle">AWS INFRASTRUCTURE — VPC  ap-south-1</text>

  <rect x="24" y="200" width="632" height="380" rx="14" fill="none" stroke="#378ADD" stroke-width="1" stroke-dasharray="6 4"/>
  <text class="zone-label" x="38" y="220">VPC — 10.0.0.0/16</text>

  <rect x="40" y="228" width="600" height="80" rx="10" fill="#FFF8EC" stroke="#EF9F27" stroke-width="0.5"/>
  <text class="zone-label" x="56" y="248" style="fill:#854F0B">PUBLIC SUBNETS — AZ-1 · AZ-2</text>

  <rect x="56" y="254" width="88" height="40" rx="6" fill="#FAEEDA" stroke="#EF9F27" stroke-width="0.5"/>
  <circle cx="72" cy="274" r="8" fill="none" stroke="#BA7517" stroke-width="1.5"/>
  <line x1="72" y1="266" x2="72" y2="282" stroke="#BA7517" stroke-width="1.2"/>
  <line x1="64" y1="274" x2="80" y2="274" stroke="#BA7517" stroke-width="1.2"/>
  <text class="svc-label" x="100" y="278" style="fill:#633806">Internet GW</text>

  <rect x="160" y="254" width="88" height="40" rx="6" fill="#FAEEDA" stroke="#EF9F27" stroke-width="0.5"/>
  <circle cx="176" cy="274" r="8" fill="#BA7517" opacity="0.2"/>
  <path d="M170 274 L176 268 L182 274 L176 280 Z" fill="#BA7517"/>
  <text class="svc-label" x="204" y="278" style="fill:#633806">NAT Gateway</text>

  <rect x="264" y="254" width="148" height="40" rx="6" fill="#FAEEDA" stroke="#EF9F27" stroke-width="0.5"/>
  <rect x="276" y="262" width="30" height="6" rx="1" fill="#BA7517"/>
  <line x1="291" y1="268" x2="283" y2="280" stroke="#BA7517" stroke-width="1.2"/>
  <line x1="291" y1="268" x2="299" y2="280" stroke="#BA7517" stroke-width="1.2"/>
  <rect x="276" y="280" width="8" height="8" rx="1" fill="#185FA5"/>
  <rect x="294" y="280" width="8" height="8" rx="1" fill="#1D9E75"/>
  <text class="svc-label" x="360" y="272" style="fill:#633806">Application Load Balancer</text>
  <text class="svc-sub" x="360" y="285" style="fill:#854F0B">port 80 (prod) · port 8080 (test)</text>

  <rect x="428" y="254" width="88" height="40" rx="6" fill="#FAEEDA" stroke="#EF9F27" stroke-width="0.5"/>
  <rect x="444" y="261" width="20" height="20" rx="3" fill="none" stroke="#BA7517" stroke-width="1.5"/>
  <path d="M449 271 L452 274 L459 267" fill="none" stroke="#BA7517" stroke-width="1.5"/>
  <text class="svc-label" x="476" y="278" style="fill:#633806">Security GW</text>

  <rect x="532" y="254" width="80" height="40" rx="6" fill="#FAEEDA" stroke="#EF9F27" stroke-width="0.5"/>
  <rect x="544" y="262" width="24" height="20" rx="2" fill="none" stroke="#BA7517" stroke-width="1.2"/>
  <line x1="548" y1="268" x2="564" y2="268" stroke="#BA7517" stroke-width="1"/>
  <line x1="548" y1="274" x2="564" y2="274" stroke="#BA7517" stroke-width="1"/>
  <text class="svc-label" x="572" y="278" style="fill:#633806">Route tables</text>

  <line x1="340" y1="294" x2="340" y2="320" stroke="#BA7517" stroke-width="1" marker-end="url(#arr-orange)"/>

  <rect x="40" y="328" width="600" height="240" rx="10" fill="#EDF7F2" stroke="#5DCAA5" stroke-width="0.5"/>
  <text class="zone-label" x="56" y="348" style="fill:#0F6E56">PRIVATE SUBNETS — ECS Fargate tasks (no direct internet)</text>

  <rect x="56" y="358" width="268" height="190" rx="8" fill="#D6EEE5" stroke="#1D9E75" stroke-width="0.5"/>
  <text class="zone-label" x="72" y="376" style="fill:#085041">BLUE ENVIRONMENT — live traffic</text>

  <rect x="72" y="382" width="110" height="70" rx="6" fill="white" stroke="#1D9E75" stroke-width="0.5"/>
  <rect x="82" y="390" width="18" height="14" rx="2" fill="#185FA5"/>
  <rect x="104" y="390" width="18" height="14" rx="2" fill="#185FA5"/>
  <rect x="82" y="408" width="18" height="14" rx="2" fill="#185FA5" opacity="0.4"/>
  <rect x="104" y="408" width="18" height="14" rx="2" fill="#185FA5" opacity="0.4"/>
  <text class="svc-label" x="127" y="436" style="fill:#0C447C">ECS task (v1.0)</text>
  <text class="svc-sub" x="127" y="447" style="fill:#185FA5">0.25 vCPU · 512MB</text>

  <rect x="196" y="382" width="110" height="70" rx="6" fill="white" stroke="#1D9E75" stroke-width="0.5"/>
  <rect x="206" y="390" width="18" height="14" rx="2" fill="#185FA5"/>
  <rect x="228" y="390" width="18" height="14" rx="2" fill="#185FA5"/>
  <rect x="206" y="408" width="18" height="14" rx="2" fill="#185FA5" opacity="0.4"/>
  <rect x="228" y="408" width="18" height="14" rx="2" fill="#185FA5" opacity="0.4"/>
  <text class="svc-label" x="251" y="436" style="fill:#0C447C">ECS task (v1.0)</text>
  <text class="svc-sub" x="251" y="447" style="fill:#185FA5">0.25 vCPU · 512MB</text>

  <rect x="72" y="462" width="234" height="30" rx="5" fill="white" stroke="#1D9E75" stroke-width="0.5"/>
  <text class="svc-label" x="189" y="477" style="fill:#085041">Target group: bluegreen-blue-tg</text>

  <rect x="72" y="502" width="234" height="26" rx="5" fill="#185FA5" opacity="0.12" stroke="#185FA5" stroke-width="0.5"/>
  <text class="svc-label" x="189" y="515" style="fill:#0C447C">ALB port 80 → 100% production traffic</text>

  <rect x="356" y="358" width="268" height="190" rx="8" fill="#E8F7EC" stroke="#97C459" stroke-width="0.5"/>
  <text class="zone-label" x="372" y="376" style="fill:#3B6D11">GREEN ENVIRONMENT — new deployment</text>

  <rect x="372" y="382" width="110" height="70" rx="6" fill="white" stroke="#97C459" stroke-width="0.5"/>
  <rect x="382" y="390" width="18" height="14" rx="2" fill="#1D9E75"/>
  <rect x="404" y="390" width="18" height="14" rx="2" fill="#1D9E75"/>
  <rect x="382" y="408" width="18" height="14" rx="2" fill="#1D9E75" opacity="0.4"/>
  <rect x="404" y="408" width="18" height="14" rx="2" fill="#1D9E75" opacity="0.4"/>
  <text class="svc-label" x="427" y="436" style="fill:#27500A">ECS task (v2.0)</text>
  <text class="svc-sub" x="427" y="447" style="fill:#3B6D11">0.25 vCPU · 512MB</text>

  <rect x="496" y="382" width="110" height="70" rx="6" fill="white" stroke="#97C459" stroke-width="0.5"/>
  <rect x="506" y="390" width="18" height="14" rx="2" fill="#1D9E75"/>
  <rect x="528" y="390" width="18" height="14" rx="2" fill="#1D9E75"/>
  <rect x="506" y="408" width="18" height="14" rx="2" fill="#1D9E75" opacity="0.4"/>
  <rect x="528" y="408" width="18" height="14" rx="2" fill="#1D9E75" opacity="0.4"/>
  <text class="svc-label" x="551" y="436" style="fill:#27500A">ECS task (v2.0)</text>
  <text class="svc-sub" x="551" y="447" style="fill:#3B6D11">0.25 vCPU · 512MB</text>

  <rect x="372" y="462" width="234" height="30" rx="5" fill="white" stroke="#97C459" stroke-width="0.5"/>
  <text class="svc-label" x="489" y="477" style="fill:#27500A">Target group: bluegreen-green-tg</text>

  <rect x="372" y="502" width="234" height="26" rx="5" fill="#1D9E75" opacity="0.12" stroke="#1D9E75" stroke-width="0.5"/>
  <text class="svc-label" x="489" y="515" style="fill:#27500A">ALB port 8080 → test traffic only</text>

  <path d="M300 294 L300 340 L190 340 L190 382" fill="none" stroke="#185FA5" stroke-width="0.8" stroke-dasharray="4 3" marker-end="url(#arr-blue)"/>
  <path d="M380 294 L380 340 L490 340 L490 382" fill="none" stroke="#1D9E75" stroke-width="0.8" stroke-dasharray="4 3" marker-end="url(#arr-green)"/>
  <text class="flow-label" x="235" y="337" style="fill:#185FA5">port 80</text>
  <text class="flow-label" x="438" y="337" style="fill:#1D9E75">port 8080</text>

  <line x1="340" y1="600" x2="340" y2="624" stroke="#d3d1c7" stroke-width="0.5"/>

  <text class="section-title" x="340" y="642" text-anchor="middle">CDK INFRASTRUCTURE AS CODE — 4 STACKS</text>

  <rect x="24" y="656" width="148" height="70" rx="10" fill="#f5f4f0" stroke="#d3d1c7" stroke-width="0.5"/>
  <rect x="36" y="668" width="24" height="24" rx="4" fill="#185FA5" opacity="0.15"/>
  <path d="M42 686 L48 674 L54 686" fill="none" stroke="#185FA5" stroke-width="1.5"/>
  <line x1="44" y1="682" x2="52" y2="682" stroke="#185FA5" stroke-width="1.2"/>
  <text class="svc-label" x="100" y="672" style="text-anchor:start">VpcStack</text>
  <text class="svc-sub" x="100" y="684" style="text-anchor:start">VPC · subnets</text>
  <text class="svc-sub" x="100" y="696" style="text-anchor:start">NAT · routes</text>
  <text class="svc-sub" x="100" y="712" style="text-anchor:start;fill:#9c9a92">deploy first</text>

  <line x1="172" y1="691" x2="190" y2="691" stroke="#888780" stroke-width="0.5" marker-end="url(#arr)"/>

  <rect x="192" y="656" width="148" height="70" rx="10" fill="#f5f4f0" stroke="#d3d1c7" stroke-width="0.5"/>
  <rect x="204" y="668" width="24" height="24" rx="4" fill="#0F6E56" opacity="0.15"/>
  <rect x="210" y="673" width="12" height="14" rx="2" fill="none" stroke="#0F6E56" stroke-width="1.2"/>
  <rect x="213" y="676" width="6" height="3" rx="1" fill="#0F6E56"/>
  <rect x="213" y="681" width="6" height="3" rx="1" fill="#0F6E56" opacity="0.5"/>
  <text class="svc-label" x="236" y="672" style="text-anchor:start">EcrStack</text>
  <text class="svc-sub" x="236" y="684" style="text-anchor:start">ECR repository</text>
  <text class="svc-sub" x="236" y="696" style="text-anchor:start">lifecycle policy</text>
  <text class="svc-sub" x="236" y="712" style="text-anchor:start;fill:#9c9a92">deploy second</text>

  <line x1="340" y1="691" x2="358" y2="691" stroke="#888780" stroke-width="0.5" marker-end="url(#arr)"/>

  <rect x="360" y="656" width="148" height="70" rx="10" fill="#f5f4f0" stroke="#d3d1c7" stroke-width="0.5"/>
  <rect x="372" y="668" width="24" height="24" rx="4" fill="#BA7517" opacity="0.15"/>
  <rect x="377" y="671" width="14" height="18" rx="2" fill="none" stroke="#BA7517" stroke-width="1.2"/>
  <rect x="380" y="675" width="4" height="3" rx="0.5" fill="#BA7517"/>
  <rect x="386" y="675" width="4" height="3" rx="0.5" fill="#BA7517"/>
  <rect x="380" y="681" width="4" height="3" rx="0.5" fill="#BA7517" opacity="0.5"/>
  <text class="svc-label" x="402" y="672" style="text-anchor:start">EcsStack</text>
  <text class="svc-sub" x="402" y="684" style="text-anchor:start">cluster · ALB</text>
  <text class="svc-sub" x="402" y="696" style="text-anchor:start">blue/green svc</text>
  <text class="svc-sub" x="402" y="712" style="text-anchor:start;fill:#9c9a92">deploy third</text>

  <line x1="508" y1="691" x2="526" y2="691" stroke="#888780" stroke-width="0.5" marker-end="url(#arr)"/>

  <rect x="528" y="656" width="148" height="70" rx="10" fill="#f5f4f0" stroke="#d3d1c7" stroke-width="0.5"/>
  <rect x="540" y="668" width="24" height="24" rx="4" fill="#534AB7" opacity="0.15"/>
  <rect x="545" y="671" width="14" height="5" rx="1" fill="#534AB7" opacity="0.8"/>
  <rect x="545" y="679" width="14" height="5" rx="1" fill="#534AB7" opacity="0.6"/>
  <rect x="545" y="687" width="14" height="5" rx="1" fill="#534AB7" opacity="0.3"/>
  <text class="svc-label" x="570" y="672" style="text-anchor:start">PipelineStack</text>
  <text class="svc-sub" x="570" y="684" style="text-anchor:start">CodePipeline</text>
  <text class="svc-sub" x="570" y="696" style="text-anchor:start">Build · Deploy</text>
  <text class="svc-sub" x="570" y="712" style="text-anchor:start;fill:#9c9a92">deploy last</text>

  <line x1="340" y1="748" x2="340" y2="770" stroke="#d3d1c7" stroke-width="0.5"/>

  <text class="section-title" x="340" y="788" text-anchor="middle">TECH STACK</text>

  <rect x="24" y="800" width="632" height="44" rx="10" fill="#f5f4f0" stroke="#d3d1c7" stroke-width="0.5"/>
  <text class="svc-label" x="340" y="819" style="fill:#6b6a63">AWS CDK (Python)  ·  ECS Fargate  ·  ECR  ·  CodePipeline  ·  CodeBuild  ·  CodeDeploy  ·  ALB  ·  VPC  ·  Flask  ·  Docker</text>
  <text class="svc-sub" x="340" y="834">Region: ap-south-1 (Mumbai)  ·  Account: 544949538590  ·  Zero-downtime Blue/Green deployments</text>

  <text class="flow-label" x="340" y="856" text-anchor="middle">github.com/ManojKumar-Devops/bluegreen-pipeline</text>

</svg>
